<svg version="1" xmlns="http://www.w3.org/2000/svg" width="682.667" height="682.667" viewBox="0 0 512.000000 512.000000"><path d="M174.6 121.7c-.1.1-4 .3-8.6.4-9.1.2-19.5 2-24.4 4.2-1.7.8-4.7 2-6.6 2.8-5.1 1.9-12.8 6.6-18 10.8-13.5 10.9-22.2 24.1-27.7 41.8l-2.7 8.8-.3 60.7L86 312h19v-57.1c0-48.9.2-58 1.6-64.2 5-22.1 19.6-38.7 40.8-46.4 10.3-3.7 14.2-3.8 114.1-3.7 101.4.1 99.9 0 112.2 5.5 7.8 3.5 14 7.7 20.1 13.8 4.6 4.7 11.9 16 13.5 21 4.1 12.9 3.9 10.5 4.3 71.1.1 32.2.3 58.8.3 59.2.1.5 4.3.8 9.4.8h9.2v-58.3c-.1-48.7-.5-60.8-2-67.7-7.7-34.9-38-61.2-73.5-63.6-7.5-.5-179.9-1.2-180.4-.7z"/><path d="M252.9 183.9c-.1.3-.2 35-.3 77.1-.1 42.1-.6 78.1-1 80-2.1 8.8-8.1 16.8-16.1 21.5-8.2 4.9-11.2 5-84.2 4.9l-68.3-.1V386h6.3c3.4.1 35.1.1 70.4.1 56.6 0 65.1-.2 71-1.7 19-4.6 33.4-18.5 38.8-37.4 1.7-6 1.8-12 1.9-84.3.1-42.9-.1-78.2-.4-78.7-.6-.9-17.9-1-18.1-.1z"/></svg>